<?xml version="1.0" standalone="no"?>
<!DOCTYPE svg PUBLIC "-//W3C//DTD SVG 20010904//EN"
 "http://www.w3.org/TR/2001/REC-SVG-20010904/DTD/svg10.dtd">
<svg version="1.0" xmlns="http://www.w3.org/2000/svg"
 width="800.000000pt" height="800.000000pt" viewBox="0 0 800.000000 800.000000"
 preserveAspectRatio="xMidYMid meet">
<metadata>
Created by potrace 1.14, written by Peter Selinger 2001-2017
</metadata>
<g transform="translate(0.000000,800.000000) scale(0.100000,-0.100000)"
fill="#000000" stroke="none">
<path d="M6685 7754 c-39 -20 -77 -42 -86 -50 -8 -8 -21 -14 -27 -14 -7 0 -12
-4 -12 -9 0 -5 -10 -13 -22 -17 -13 -4 -25 -10 -28 -13 -3 -4 -45 -36 -95 -71
-49 -35 -92 -67 -95 -70 -3 -3 -23 -19 -45 -35 -36 -27 -63 -51 -140 -122 -13
-13 -26 -23 -29 -23 -9 0 -228 -229 -286 -299 -19 -23 -42 -51 -52 -62 -9 -11
-31 -38 -50 -61 -18 -23 -38 -46 -43 -52 -6 -6 -28 -36 -50 -66 -22 -30 -45
-61 -52 -68 -7 -8 -18 -23 -24 -34 -10 -18 -18 -29 -61 -80 -10 -12 -18 -27
-18 -35 0 -7 -3 -13 -8 -13 -4 0 -16 -16 -26 -35 -11 -19 -23 -35 -28 -35 -4
0 -8 -7 -8 -15 0 -8 -4 -15 -10 -15 -5 0 -10 -5 -10 -10 0 -12 -52 -94 -62
-98 -5 -2 -8 -10 -8 -18 0 -8 -4 -14 -8 -14 -5 0 -16 -15 -25 -32 -10 -18 -25
-46 -35 -63 -10 -16 -31 -52 -45 -78 -15 -26 -33 -58 -41 -70 -31 -48 -68
-113 -79 -139 -6 -16 -15 -28 -19 -28 -4 0 -8 -9 -8 -20 0 -11 -4 -20 -8 -20
-4 0 -21 -26 -37 -57 -17 -32 -32 -60 -35 -63 -3 -3 -14 -23 -25 -45 -10 -22
-27 -51 -36 -65 -9 -14 -20 -36 -24 -50 -4 -14 -10 -27 -14 -30 -3 -3 -35 -63
-71 -135 -36 -71 -68 -131 -72 -133 -5 -2 -8 -9 -8 -16 0 -7 -11 -36 -25 -64
-14 -29 -25 -59 -25 -67 0 -8 -4 -15 -10 -15 -5 0 -10 -6 -10 -14 0 -7 -11
-34 -25 -60 -14 -26 -25 -54 -25 -62 0 -7 -4 -14 -10 -14 -5 0 -10 -7 -10 -16
0 -9 -6 -28 -14 -42 -7 -15 -24 -49 -37 -77 -13 -27 -27 -51 -31 -53 -5 -2 -8
-13 -8 -25 0 -11 -3 -18 -6 -14 -8 8 28 127 39 127 4 0 7 9 7 20 0 11 4 28 9
38 5 9 16 35 24 57 8 22 27 69 41 105 14 36 26 73 26 83 0 9 5 17 10 17 6 0
10 8 10 18 0 10 3 22 7 26 15 14 30 75 22 88 -7 10 -9 9 -9 -4 0 -10 -4 -18
-10 -18 -5 0 -10 -7 -10 -15 0 -8 -4 -23 -10 -33 -12 -22 -34 -75 -56 -135 -9
-26 -21 -50 -25 -53 -5 -3 -9 -14 -9 -25 0 -10 -4 -19 -10 -19 -5 0 -10 -11
-10 -24 0 -14 -4 -27 -9 -30 -5 -3 -12 -18 -15 -32 -4 -14 -15 -45 -26 -68
-10 -22 -26 -63 -36 -91 -9 -27 -21 -54 -26 -59 -4 -6 -8 -20 -8 -33 0 -13 -4
-23 -10 -23 -5 0 -10 -9 -10 -20 0 -11 -4 -28 -9 -38 -23 -46 -41 -95 -41
-112 0 -11 -4 -20 -9 -20 -5 0 -11 -12 -14 -27 -14 -65 -32 -123 -39 -123 -5
0 -8 -11 -8 -24 0 -14 -4 -28 -10 -31 -5 -3 -10 -14 -10 -24 0 -9 -25 -55 -56
-102 -30 -46 -65 -104 -76 -129 -11 -25 -29 -63 -39 -84 -11 -22 -19 -48 -19
-58 0 -10 -3 -18 -7 -18 -5 0 -16 -28 -26 -63 -11 -34 -23 -73 -27 -87 -19
-59 -38 -170 -39 -233 -1 -47 -11 -94 -32 -155 -17 -48 -33 -99 -36 -114 -3
-16 -9 -28 -14 -28 -5 0 -9 -13 -9 -29 0 -17 -4 -33 -10 -36 -5 -3 -10 -16
-11 -28 -1 -28 -48 68 -48 101 -1 12 -5 22 -10 22 -5 0 -17 27 -27 60 -11 33
-22 60 -26 60 -5 0 -8 6 -8 14 0 7 -7 27 -15 42 -8 16 -15 37 -15 47 0 9 -4
17 -10 17 -5 0 -10 9 -10 20 0 11 -4 20 -10 20 -5 0 -10 5 -10 10 0 6 -11 33
-25 62 -14 28 -25 58 -25 65 0 7 -3 13 -8 13 -8 0 -15 12 -47 79 -11 22 -23
41 -27 41 -5 0 -8 6 -8 13 0 7 -32 64 -70 127 -39 63 -73 123 -76 133 -4 9
-10 17 -15 17 -5 0 -9 6 -9 14 0 8 -3 16 -7 18 -11 4 -63 85 -63 97 0 5 -3 11
-8 13 -4 2 -25 28 -47 58 -22 30 -42 57 -45 60 -3 3 -21 25 -40 50 -61 78
-281 310 -295 310 -3 0 -16 10 -29 23 -40 39 -86 77 -92 77 -4 0 -14 8 -23 18
-9 10 -31 27 -49 37 -17 11 -32 23 -32 27 0 4 -4 8 -10 8 -5 0 -31 15 -57 32
-61 42 -84 56 -103 65 -8 4 -17 9 -20 12 -9 11 -115 61 -128 61 -6 0 -12 4
-12 8 0 8 -25 19 -145 63 -44 16 -88 29 -97 29 -10 0 -18 4 -18 9 0 5 -17 11
-38 14 -20 3 -84 15 -142 26 -58 11 -125 20 -150 20 l-45 -1 40 -9 c22 -5 59
-12 82 -15 24 -4 43 -11 43 -15 0 -5 14 -9 30 -9 17 0 38 -4 48 -9 9 -5 53
-22 97 -36 44 -15 94 -33 112 -41 17 -8 38 -14 47 -14 9 0 16 -4 16 -10 0 -5
9 -10 19 -10 11 0 21 -3 23 -7 2 -7 54 -35 158 -88 11 -5 20 -13 20 -17 0 -5
9 -8 20 -8 11 0 20 -4 20 -8 0 -5 16 -17 35 -28 19 -10 35 -21 35 -24 0 -3 14
-14 32 -24 17 -11 40 -26 51 -35 173 -145 245 -213 227 -219 -6 -2 -20 5 -31
17 -11 12 -23 21 -27 21 -4 0 -20 13 -37 28 -16 15 -57 47 -90 70 -86 60 -104
73 -127 94 -12 10 -24 18 -27 18 -3 0 -22 14 -41 30 -19 16 -38 30 -42 30 -4
0 -13 6 -20 14 -20 19 -176 116 -188 116 -5 0 -10 5 -10 10 0 6 -9 10 -20 10
-11 0 -20 5 -20 10 0 6 -9 10 -21 10 -21 0 -260 75 -291 91 -10 5 -29 9 -43 9
-14 0 -33 4 -43 9 -59 31 -451 59 -460 33 -3 -10 6 -13 34 -11 59 4 195 -4
154 -8 -19 -3 -39 -9 -45 -14 -5 -5 -112 -9 -242 -9 -149 0 -233 -4 -233 -10
0 -6 49 -11 123 -12 l122 -2 -100 -6 c-97 -6 -145 -15 -145 -29 0 -19 61 -38
125 -40 39 -1 74 -6 80 -12 5 -5 24 -9 43 -9 26 0 33 -4 30 -17 -3 -15 -17
-19 -78 -23 -112 -8 -65 -18 120 -24 123 -5 184 -12 240 -27 41 -12 87 -24
102 -26 16 -3 28 -9 28 -14 0 -5 10 -9 23 -9 12 -1 33 -7 47 -15 23 -13 23
-14 4 -15 -11 0 -43 7 -70 15 -27 8 -63 15 -79 15 -17 0 -35 4 -40 9 -31 31
-482 28 -665 -3 -98 -17 -190 -40 -190 -48 0 -11 126 -10 148 1 23 12 271 31
402 31 121 0 317 -18 342 -31 10 -5 30 -9 45 -9 35 0 167 -33 171 -42 2 -5 15
-8 28 -8 13 0 32 -4 42 -10 9 -5 33 -15 52 -23 19 -8 61 -26 93 -41 32 -14 62
-26 67 -26 6 0 10 -4 10 -10 0 -5 9 -10 20 -10 11 0 20 -4 20 -9 0 -5 11 -12
25 -15 14 -4 25 -11 25 -16 0 -6 5 -10 11 -10 7 0 34 -16 60 -35 27 -19 53
-35 58 -35 5 0 11 -3 13 -8 2 -4 28 -28 58 -52 59 -48 270 -255 270 -265 0 -3
17 -23 38 -44 20 -21 48 -54 62 -74 14 -20 28 -37 33 -37 4 0 7 -5 7 -11 0 -6
11 -25 25 -43 14 -18 25 -38 25 -44 0 -6 6 -13 13 -15 9 -4 9 -6 0 -6 -7 -1
-25 16 -40 37 -15 20 -30 39 -33 42 -4 3 -19 23 -36 45 -37 50 -113 125 -126
125 -6 0 -1 -8 10 -19 12 -10 22 -21 22 -25 0 -4 10 -17 23 -30 12 -12 38 -42
57 -66 19 -24 41 -49 48 -56 6 -7 12 -15 12 -19 0 -4 6 -13 13 -20 29 -33 37
-45 37 -54 0 -5 3 -11 8 -13 10 -4 82 -116 82 -128 0 -5 4 -10 9 -10 5 0 13
-10 17 -22 4 -13 9 -25 13 -28 9 -8 41 -62 54 -92 6 -16 15 -28 19 -28 4 0 8
-9 8 -20 0 -11 3 -20 8 -20 12 0 42 -78 42 -109 0 -17 4 -33 10 -36 6 -3 10
-22 10 -41 0 -19 4 -34 9 -34 5 0 12 -20 15 -45 4 -24 11 -47 17 -50 5 -4 9
-15 9 -26 0 -10 4 -27 9 -37 5 -9 17 -37 26 -62 38 -98 34 -91 89 -193 18 -35
36 -77 39 -93 3 -16 13 -58 22 -94 9 -36 19 -78 21 -95 3 -16 9 -39 14 -50 5
-11 11 -33 14 -50 2 -16 14 -71 25 -121 54 -245 63 -607 20 -829 -15 -77 -17
-206 -4 -273 6 -35 15 -48 46 -68 48 -30 52 -30 69 1 18 33 30 32 30 -4 0 -30
28 -50 51 -36 6 4 13 -2 16 -14 4 -16 9 -19 18 -11 7 6 23 9 36 8 18 -2 25 2
27 20 2 14 10 22 22 22 24 0 70 55 70 85 0 29 22 38 47 20 18 -13 21 -11 33
13 7 15 16 34 21 42 5 8 12 22 16 30 4 8 13 21 20 29 15 14 22 8 66 -54 12
-16 27 -25 46 -25 23 0 31 8 50 45 12 25 27 43 31 40 5 -3 17 4 27 16 10 12
24 27 31 34 6 8 12 16 12 20 0 3 5 11 10 18 21 25 60 88 60 97 0 6 4 10 9 10
5 0 12 8 15 18 4 10 14 27 24 38 23 27 52 82 52 100 0 8 4 14 9 14 5 0 11 12
14 27 16 79 25 110 35 128 11 19 11 18 12 -7 0 -16 5 -28 10 -28 6 0 10 -6 10
-14 0 -22 38 -30 63 -13 24 16 66 94 90 167 27 84 41 145 72 320 10 52 21 104
26 115 4 11 10 38 12 60 3 22 12 72 21 110 20 83 34 145 46 200 4 22 16 72 25
110 9 39 19 81 22 95 2 14 8 34 13 45 9 20 10 28 32 148 7 37 16 67 20 67 4 0
8 15 8 33 0 19 3 37 7 41 8 8 31 100 40 159 3 20 9 37 14 37 5 0 9 16 9 35 0
19 5 35 10 35 6 0 10 14 10 30 0 17 7 47 15 67 8 19 15 48 15 64 0 16 5 29 10
29 6 0 10 13 10 28 0 16 3 32 7 36 9 8 31 90 40 144 3 17 9 32 14 32 5 0 9 11
9 25 0 14 4 33 9 43 5 9 16 44 26 77 32 110 65 210 75 227 6 10 10 27 10 38 0
11 5 20 10 20 6 0 10 7 10 15 0 15 60 171 101 262 28 62 43 100 59 143 15 42
30 79 40 100 4 9 11 30 14 48 4 17 12 34 17 37 5 4 9 14 9 24 0 9 11 41 25 69
14 29 25 54 25 57 0 2 11 28 24 57 13 29 30 70 37 91 7 20 17 37 21 37 4 0 8
7 8 15 0 15 3 23 33 83 9 19 17 40 17 48 0 8 5 14 10 14 6 0 10 7 10 14 0 8
11 36 25 62 14 26 25 53 25 60 0 8 5 14 10 14 6 0 10 6 10 14 0 17 32 80 43
84 4 2 7 12 7 23 0 10 4 19 8 19 4 0 16 23 27 50 11 28 23 50 27 50 4 0 8 9 8
20 0 11 4 20 8 20 4 0 16 23 27 50 11 28 23 50 27 50 4 0 8 6 8 13 0 6 16 43
35 81 19 39 35 75 35 82 0 7 3 14 8 16 4 2 19 26 33 53 52 102 84 160 89 165
9 8 40 59 40 65 0 2 -11 -5 -25 -17 -14 -12 -25 -28 -25 -35 0 -7 -4 -13 -8
-13 -5 0 -17 -16 -28 -35 -10 -19 -22 -35 -26 -35 -5 0 -8 -7 -8 -15 0 -8 -3
-15 -8 -15 -4 0 -16 -16 -26 -35 -11 -19 -23 -35 -28 -35 -4 0 -8 -5 -8 -11 0
-6 -11 -25 -25 -43 -14 -18 -25 -36 -25 -40 0 -9 -53 -90 -62 -94 -5 -2 -8
-10 -8 -18 0 -8 -4 -14 -8 -14 -4 0 -13 -12 -19 -27 -13 -31 -44 -85 -54 -93
-3 -3 -26 -43 -50 -90 -24 -47 -46 -87 -49 -90 -3 -3 -19 -32 -35 -65 -17 -33
-32 -62 -35 -65 -3 -3 -23 -41 -45 -85 -22 -44 -45 -86 -52 -93 -6 -7 -17 -28
-24 -47 -7 -19 -17 -35 -21 -35 -4 0 -8 -6 -8 -12 0 -10 -83 -184 -107 -227
-2 -2 -9 2 -17 8 -10 9 -12 18 -6 29 16 33 39 87 52 130 7 23 16 42 20 42 5 0
8 11 8 25 0 14 4 25 9 25 5 0 12 18 16 40 4 22 11 40 16 40 5 0 9 9 9 20 0 11
5 20 10 20 6 0 10 7 10 15 0 15 46 95 60 105 4 3 10 15 14 28 4 12 12 22 17
22 5 0 9 7 9 15 0 8 4 15 8 15 4 0 16 15 26 33 11 17 54 82 96 142 42 61 82
126 89 145 20 54 45 100 53 100 5 0 8 7 8 15 0 8 5 15 10 15 6 0 10 4 10 10 0
5 27 48 60 94 33 47 60 89 60 95 0 6 4 11 9 11 5 0 23 22 40 49 17 27 45 63
61 80 17 17 30 34 30 38 0 5 13 22 28 39 15 17 41 49 57 70 39 50 82 100 122
144 18 19 33 39 33 44 0 5 16 24 35 43 19 19 35 36 35 39 0 3 11 16 25 30 14
14 25 27 25 30 0 11 -26 -11 -60 -49 -19 -22 -73 -80 -120 -128 -109 -114
-130 -137 -130 -143 0 -3 -16 -20 -35 -39 -19 -19 -35 -37 -35 -41 0 -4 -10
-18 -22 -31 -34 -36 -48 -53 -48 -60 0 -3 -11 -18 -25 -33 -14 -15 -25 -31
-25 -35 0 -5 -7 -15 -15 -23 -19 -20 -20 -4 0 22 16 21 19 34 7 34 -14 0 -41
-56 -36 -76 3 -12 -3 -27 -16 -39 -18 -16 -20 -16 -14 -2 12 31 -11 17 -30
-18 -11 -19 -23 -35 -28 -35 -4 0 -8 -7 -8 -15 0 -8 -3 -15 -8 -15 -4 0 -16
-16 -26 -35 -11 -19 -23 -35 -28 -35 -4 0 -8 -5 -8 -11 0 -5 -22 -44 -50 -86
-27 -42 -50 -80 -50 -84 0 -5 -4 -9 -10 -9 -5 0 -10 7 -10 15 0 8 5 15 10 15
6 0 10 5 10 11 0 7 18 49 40 95 22 46 40 88 40 94 0 5 5 10 10 10 6 0 10 7 10
15 0 8 4 15 9 15 5 0 12 8 15 18 3 9 17 30 31 46 14 16 25 32 25 36 0 4 14 21
30 38 17 18 30 34 30 38 0 3 16 22 35 42 19 20 35 41 35 45 0 4 10 18 23 30
13 12 31 33 40 47 36 53 277 306 277 290 0 -5 -18 -28 -40 -50 -22 -22 -40
-42 -40 -45 0 -3 -22 -27 -50 -55 -27 -28 -50 -54 -50 -58 0 -4 -10 -19 -23
-34 -13 -15 -32 -39 -43 -54 -10 -14 -25 -32 -31 -39 -7 -8 -13 -18 -13 -24 0
-21 16 -11 35 22 10 17 27 39 37 48 10 9 18 19 18 23 0 4 5 12 10 19 6 7 20
23 31 37 25 32 139 157 202 223 52 55 54 59 32 51 -36 -14 -6 21 60 71 22 16
54 43 70 60 17 16 48 43 70 60 56 41 79 64 73 70 -5 5 -131 -75 -136 -87 -2
-5 -10 -8 -18 -8 -8 0 -14 -3 -14 -7 0 -5 -20 -21 -45 -38 -24 -16 -45 -33
-45 -36 0 -3 -21 -21 -47 -39 -27 -19 -56 -43 -65 -54 -10 -10 -18 -15 -18 -9
0 5 25 32 56 59 31 27 73 64 93 82 20 19 48 41 62 49 23 14 59 61 59 77 0 3
-7 6 -15 6 -8 0 -15 -4 -15 -10 0 -5 -10 -10 -23 -10 -13 0 -28 -5 -35 -12 -9
-9 -12 -7 -12 9 0 12 8 24 18 26 15 4 16 5 0 6 -9 0 -28 -10 -41 -22 -12 -13
-35 -32 -50 -42 -30 -19 -35 -35 -12 -35 8 0 15 -4 15 -10 0 -5 -4 -10 -8 -10
-4 0 -27 -18 -50 -40 -22 -22 -44 -40 -47 -40 -3 0 -28 -21 -54 -47 -85 -85
-151 -143 -151 -134 0 4 61 67 135 139 74 72 135 134 135 137 0 6 -17 -7 -55
-42 -13 -13 -31 -23 -40 -23 -9 0 -35 -16 -58 -35 -42 -36 -57 -43 -57 -25 0
6 -7 10 -15 10 -8 0 -15 3 -15 6 0 8 171 174 229 222 25 20 64 56 89 79 24 23
52 45 63 48 20 7 27 25 9 25 -5 0 -10 -4 -10 -10 0 -5 -5 -10 -11 -10 -6 0
-17 -6 -24 -12 -31 -28 -44 -38 -50 -38 -4 0 -13 -6 -20 -12 -8 -7 -33 -29
-56 -48 -23 -19 -51 -44 -63 -55 -12 -11 -50 -45 -85 -75 -35 -30 -96 -88
-135 -129 -39 -40 -145 -148 -236 -240 -161 -163 -188 -191 -280 -301 -25 -29
-57 -65 -71 -80 -14 -15 -29 -33 -32 -41 -4 -11 -6 -10 -6 3 -1 9 6 23 14 32
8 8 15 17 15 21 0 3 11 18 25 33 14 15 25 31 25 37 0 6 9 17 20 25 11 8 20 18
20 23 0 4 11 20 25 35 14 15 25 31 25 36 0 5 16 24 35 43 19 19 35 37 35 41 0
4 10 18 23 32 12 14 30 35 39 48 8 12 36 45 62 72 25 27 46 51 46 54 0 11 343
350 395 391 28 22 57 47 65 55 8 9 33 29 55 46 22 16 51 39 65 52 14 12 30 22
37 22 6 0 13 3 15 8 2 4 28 25 58 47 30 22 61 45 68 52 7 7 20 13 28 13 8 0
14 4 14 9 0 5 8 12 18 15 39 13 93 76 64 76 -4 0 -39 -16 -77 -36z m-195 -454
c0 -13 -28 -25 -38 -16 -3 4 0 11 8 16 20 13 30 12 30 0z m-50 -216 c0 -3 -6
-12 -14 -19 -17 -18 -29 -8 -13 11 12 14 27 18 27 8z m-467 -256 c-49 -50 -73
-77 -73 -83 0 -3 -11 -18 -25 -33 -14 -15 -25 -31 -25 -36 0 -5 -8 -16 -18
-25 -26 -24 -72 -88 -72 -100 0 -6 -3 -11 -8 -11 -4 0 -16 -16 -26 -35 -11
-19 -23 -35 -28 -35 -4 0 -8 -6 -8 -13 0 -7 -11 -24 -25 -39 -14 -15 -25 -30
-25 -33 0 -10 -28 -35 -39 -35 -6 0 -11 3 -11 6 0 8 53 78 63 82 4 2 7 9 7 15
0 7 11 24 25 39 14 15 25 30 25 33 0 3 11 18 25 33 14 15 25 32 25 39 0 7 3
13 8 13 4 0 18 17 32 37 14 20 37 49 52 64 16 15 28 30 28 34 0 10 94 104 105
105 5 0 0 -10 -12 -22z m-517 -394 c-21 -20 -28 -17 -14 5 7 11 16 17 20 15 5
-3 2 -12 -6 -20z m-312 -498 c-3 -14 -10 -26 -15 -26 -5 0 -9 -9 -9 -19 0 -11
-3 -21 -7 -23 -11 -4 -43 -67 -43 -84 0 -8 -3 -14 -7 -14 -5 0 -13 -10 -19
-23 -17 -35 -49 -92 -54 -97 -6 -6 -25 -39 -49 -85 -21 -38 -40 -59 -48 -51
-4 3 -1 12 5 18 7 7 12 20 12 30 0 10 4 18 8 18 4 0 21 26 37 58 17 31 32 59
35 62 3 3 14 24 25 47 11 24 23 43 28 43 4 0 7 7 7 15 0 8 3 15 8 15 4 0 16
20 27 45 11 25 23 45 27 45 5 0 8 7 8 15 0 8 5 15 10 15 6 0 10 8 10 17 0 9 2
14 5 11 4 -3 3 -17 -1 -32z m-3551 -783 c-7 -2 -13 -9 -13 -15 0 -6 18 -7 50
-3 34 5 50 3 50 -4 0 -6 15 -11 34 -11 19 0 38 -4 41 -10 3 -5 17 -10 30 -10
13 0 34 -4 47 -10 13 -5 51 -17 86 -27 34 -9 62 -21 62 -25 0 -4 11 -8 25 -8
14 0 25 -4 25 -9 0 -5 8 -12 18 -14 9 -2 -1 -2 -23 1 -22 2 -48 8 -57 13 -9 5
-28 9 -42 9 -14 0 -27 4 -30 9 -3 4 -20 11 -38 15 -18 3 -58 13 -88 21 -94 26
-233 55 -266 55 -60 0 -73 14 -19 21 64 8 124 9 108 2z m-435 -80 c-21 -2 -57
-2 -80 0 -24 2 -7 4 37 4 44 0 63 -2 43 -4z m170 -20 c-16 -2 -40 -2 -55 0
-16 2 -3 4 27 4 30 0 43 -2 28 -4z m280 -50 c-10 -2 -26 -2 -35 0 -10 3 -2 5
17 5 19 0 27 -2 18 -5z m85 -20 c-7 -2 -21 -2 -30 0 -10 3 -4 5 12 5 17 0 24
-2 18 -5z m72 -13 c3 -5 20 -10 37 -10 17 0 29 -3 25 -6 -9 -9 -107 6 -107 17
0 12 37 11 45 -1z m121 -37 c31 -13 35 -18 19 -21 -10 -2 -21 1 -23 7 -2 6
-12 11 -23 11 -10 0 -19 5 -19 10 0 13 1 13 46 -7z m-116 -83 c0 -5 -9 -10
-21 -10 -11 0 -17 5 -14 10 3 6 13 10 21 10 8 0 14 -4 14 -10z m2710 -119 c0
-6 -4 -13 -10 -16 -5 -3 -10 1 -10 9 0 9 5 16 10 16 6 0 10 -4 10 -9z m-2160
-166 c7 -8 16 -15 21 -15 10 0 119 -105 119 -115 0 -3 -7 0 -14 7 -8 7 -33 29
-56 48 -80 69 -102 90 -92 90 5 0 15 -7 22 -15z m175 -164 c-6 -5 -25 10 -25
20 0 5 6 4 14 -3 8 -7 12 -15 11 -17z"/>
<path d="M6975 7650 c-3 -5 -1 -10 4 -10 6 0 11 5 11 10 0 6 -2 10 -4 10 -3 0
-8 -4 -11 -10z"/>
<path d="M6940 7630 c0 -5 5 -10 10 -10 6 0 10 5 10 10 0 6 -4 10 -10 10 -5 0
-10 -4 -10 -10z"/>
<path d="M3795 7610 c-44 -5 -124 -11 -178 -15 -54 -5 -100 -12 -103 -17 -3
-4 -32 -8 -64 -8 -32 0 -61 -4 -64 -9 -3 -5 -39 -12 -81 -16 -41 -4 -77 -11
-81 -16 -3 -5 -23 -9 -45 -9 -21 0 -39 -4 -39 -10 0 -5 -11 -10 -25 -10 -13 0
-44 -6 -67 -14 -24 -7 -61 -18 -83 -24 -119 -34 -152 -44 -167 -53 -10 -5 -27
-9 -38 -9 -11 0 -20 -4 -20 -10 0 -5 -9 -10 -20 -10 -11 0 -43 -11 -72 -24
-29 -13 -79 -35 -111 -50 -32 -14 -64 -26 -72 -26 -8 0 -15 -4 -15 -10 0 -5
-6 -10 -12 -10 -12 0 -118 -50 -128 -60 -3 -3 -45 -25 -93 -50 -48 -25 -96
-52 -105 -60 -9 -8 -33 -23 -52 -32 -42 -21 -69 -38 -88 -55 -7 -7 -17 -13
-21 -13 -4 0 -16 -8 -27 -18 -10 -10 -34 -27 -51 -37 -18 -11 -33 -23 -33 -27
0 -4 -6 -8 -13 -8 -7 0 -24 -11 -39 -25 -15 -14 -30 -25 -33 -25 -4 0 -12 -6
-19 -12 -7 -7 -30 -26 -51 -43 -21 -16 -53 -43 -70 -60 -47 -43 -84 -75 -90
-75 -14 0 -321 -321 -377 -395 -29 -38 -50 -64 -63 -79 -29 -31 -95 -124 -95
-134 0 -5 -3 -12 -7 -14 -13 -5 -63 -76 -63 -87 0 -6 -4 -11 -9 -11 -5 0 -12
-8 -15 -18 -4 -10 -14 -27 -24 -38 -10 -10 -26 -35 -35 -54 -20 -41 -40 -73
-48 -80 -3 -3 -45 -86 -93 -185 -85 -175 -100 -208 -116 -250 -25 -68 -43
-112 -51 -127 -5 -10 -9 -27 -9 -38 0 -11 -4 -20 -10 -20 -5 0 -10 -7 -10 -16
0 -15 -20 -84 -40 -139 -4 -11 -16 -56 -26 -100 -10 -44 -21 -84 -26 -89 -4
-6 -8 -25 -8 -43 0 -18 -4 -41 -9 -51 -13 -26 -45 -227 -63 -407 -15 -147 -16
-553 -1 -690 21 -191 51 -382 64 -407 5 -10 9 -28 9 -40 0 -12 4 -35 9 -52 29
-97 41 -146 41 -169 0 -15 5 -27 10 -27 6 0 10 -8 10 -17 1 -21 34 -120 44
-130 3 -3 6 -15 6 -25 0 -10 4 -26 9 -36 8 -15 26 -59 51 -127 16 -42 31 -75
116 -250 48 -99 90 -182 93 -185 8 -7 28 -39 48 -80 9 -19 25 -44 35 -54 10
-11 20 -28 24 -38 3 -10 10 -18 15 -18 5 0 9 -5 9 -11 0 -10 39 -67 72 -103
10 -11 20 -28 24 -38 3 -10 10 -18 15 -18 5 0 9 -5 9 -11 0 -6 6 -16 12 -24 7
-7 22 -25 33 -41 11 -15 25 -32 30 -38 6 -6 35 -40 65 -76 125 -147 302 -329
376 -385 21 -16 51 -41 65 -55 31 -30 55 -49 93 -73 15 -11 42 -32 58 -48 17
-15 39 -31 49 -34 11 -4 19 -10 19 -13 0 -4 16 -16 35 -26 19 -11 35 -23 35
-28 0 -4 7 -8 15 -8 8 0 15 -4 15 -8 0 -5 10 -14 22 -20 13 -6 41 -23 63 -37
22 -14 47 -28 55 -32 8 -3 17 -9 20 -12 5 -6 38 -25 85 -50 16 -9 32 -19 35
-22 3 -3 24 -14 48 -24 23 -11 42 -22 42 -27 0 -4 6 -8 13 -8 6 0 43 -16 80
-35 38 -19 75 -35 83 -35 8 0 14 -4 14 -10 0 -5 16 -12 35 -16 19 -3 35 -10
35 -15 0 -5 11 -9 25 -9 14 0 25 -3 25 -8 0 -4 27 -16 61 -26 33 -11 62 -23
65 -28 3 -4 15 -8 28 -8 12 0 26 -4 31 -8 6 -4 37 -16 70 -26 33 -10 71 -22
85 -26 14 -5 57 -16 95 -25 39 -9 78 -21 87 -26 10 -5 31 -9 48 -9 17 0 38 -4
48 -9 15 -9 146 -33 247 -46 316 -41 539 -51 740 -35 83 6 185 14 228 17 42 3
80 10 83 14 3 5 24 9 46 9 50 0 216 28 240 41 10 5 34 9 53 9 19 0 35 4 35 9
0 5 17 11 38 14 37 5 108 23 147 37 74 26 185 60 199 60 9 0 16 5 16 10 0 6 7
10 15 10 21 0 149 52 153 62 2 4 11 8 20 8 10 0 30 7 46 15 15 8 35 15 42 15
8 0 14 5 14 10 0 6 6 10 14 10 19 0 249 119 326 169 14 9 34 22 45 29 11 7 28
15 38 18 9 4 17 10 17 15 0 5 5 9 11 9 9 0 74 44 89 60 3 3 28 20 55 37 28 18
59 40 70 50 11 10 38 31 60 47 22 17 42 33 45 36 3 3 14 13 26 21 43 30 152
128 253 230 105 105 241 250 241 256 0 2 10 15 23 28 33 36 47 53 47 60 0 4 6
13 13 20 21 24 31 38 82 110 27 39 55 76 62 83 7 7 13 20 13 28 0 8 4 14 8 14
5 0 17 16 28 35 10 19 22 35 26 35 5 0 8 7 8 15 0 8 5 15 10 15 6 0 10 9 10
20 0 11 3 20 8 20 4 0 12 9 17 20 38 77 81 156 87 158 5 2 8 12 8 23 0 10 4
19 8 19 4 0 16 23 27 50 11 28 23 50 27 50 4 0 8 6 8 13 0 13 19 59 41 99 5
10 9 25 9 33 0 8 5 15 10 15 6 0 10 11 10 25 0 14 3 25 8 25 4 0 16 28 26 63
11 34 23 69 26 77 14 29 40 118 40 134 0 9 5 16 10 16 6 0 10 15 10 33 0 18 4
37 8 43 5 5 17 47 26 94 10 47 22 93 27 102 5 10 9 36 9 57 0 22 4 43 10 46 6
3 10 21 10 38 0 18 7 68 15 112 8 44 14 115 15 158 0 46 4 77 10 77 7 0 9 93
6 283 -4 279 -15 450 -35 537 -6 25 -11 62 -11 82 0 20 -4 40 -10 43 -5 3 -10
24 -10 46 0 21 -4 47 -9 57 -5 9 -16 53 -26 97 -9 44 -21 88 -26 97 -5 10 -9
27 -9 38 0 11 -4 28 -9 38 -5 9 -17 44 -26 77 -10 33 -21 67 -24 75 -4 8 -16
43 -27 77 -10 35 -22 63 -26 63 -5 0 -8 11 -8 25 0 14 -4 25 -10 25 -5 0 -10
7 -10 15 0 8 -11 38 -25 67 -14 28 -25 58 -25 65 0 7 -4 13 -8 13 -4 0 -16 23
-27 50 -11 28 -23 50 -27 50 -4 0 -8 7 -8 15 0 9 -10 32 -23 53 -13 20 -32 54
-43 75 -36 72 -39 77 -46 77 -5 0 -8 9 -8 20 0 11 -4 20 -8 20 -4 0 -21 23
-37 50 -16 28 -33 50 -37 50 -4 0 -8 4 -8 10 0 12 -100 154 -112 158 -4 2 -8
8 -8 14 0 5 -6 16 -12 23 -27 30 -38 44 -38 50 0 5 -32 44 -57 71 -7 7 -13 15
-13 17 0 2 -21 27 -47 54 -27 27 -68 72 -93 100 -37 41 -47 48 -58 37 -20 -21
-15 -32 42 -92 99 -104 136 -146 181 -207 17 -22 36 -46 43 -53 6 -7 12 -17
12 -21 0 -4 8 -16 18 -27 28 -31 72 -92 72 -100 0 -4 8 -14 18 -23 9 -9 24
-30 33 -46 23 -45 43 -79 49 -85 16 -16 60 -92 60 -104 0 -8 3 -16 8 -18 4 -1
27 -43 52 -93 25 -49 48 -91 53 -93 4 -2 7 -15 7 -28 0 -13 5 -24 10 -24 6 0
10 -4 10 -10 0 -5 11 -33 24 -62 55 -122 65 -147 72 -172 3 -14 10 -29 15 -32
5 -3 9 -15 9 -28 0 -12 4 -26 8 -32 4 -5 16 -36 26 -69 10 -33 22 -69 26 -80
4 -11 16 -56 26 -100 10 -44 21 -84 26 -89 4 -6 8 -25 8 -43 0 -18 4 -41 9
-51 11 -21 41 -188 41 -230 0 -17 5 -34 10 -37 6 -3 10 -46 10 -96 0 -53 4
-89 10 -89 6 0 10 -107 10 -300 0 -193 -4 -300 -10 -300 -6 0 -10 -36 -10 -89
0 -50 -4 -93 -10 -96 -5 -3 -10 -25 -10 -48 0 -23 -7 -69 -15 -102 -8 -33 -14
-74 -15 -92 0 -17 -4 -35 -10 -38 -5 -3 -10 -24 -10 -46 0 -21 -4 -39 -8 -39
-7 0 -25 -68 -39 -150 -3 -19 -8 -37 -12 -40 -7 -5 -29 -77 -38 -122 -3 -16
-9 -28 -14 -28 -5 0 -9 -11 -9 -24 0 -14 -4 -27 -9 -30 -5 -3 -12 -18 -15 -32
-7 -25 -17 -50 -72 -172 -13 -29 -24 -57 -24 -62 0 -6 -4 -10 -10 -10 -5 0
-10 -11 -10 -24 0 -13 -3 -26 -7 -28 -5 -1 -28 -43 -53 -93 -25 -49 -48 -91
-53 -93 -4 -2 -7 -12 -7 -23 0 -10 -3 -19 -8 -19 -7 0 -25 -30 -38 -62 -3 -10
-10 -18 -15 -18 -5 0 -9 -5 -9 -11 0 -6 -16 -33 -35 -59 -19 -26 -35 -53 -35
-59 0 -6 -4 -11 -8 -11 -5 0 -17 -16 -28 -35 -10 -19 -22 -35 -26 -35 -5 0 -8
-5 -8 -10 0 -6 -11 -23 -25 -38 -14 -15 -25 -32 -25 -39 0 -6 -3 -13 -7 -15
-9 -3 -52 -53 -98 -112 -89 -114 -339 -366 -465 -467 -25 -20 -55 -46 -68 -57
-12 -11 -38 -30 -57 -43 -19 -13 -35 -27 -35 -31 0 -5 -5 -8 -11 -8 -6 0 -17
-6 -24 -12 -33 -30 -45 -38 -55 -38 -5 0 -10 -3 -10 -8 0 -4 -16 -16 -35 -26
-19 -11 -35 -23 -35 -28 0 -4 -5 -8 -10 -8 -9 0 -88 -47 -100 -60 -3 -3 -24
-14 -47 -25 -24 -11 -43 -23 -43 -27 0 -5 -6 -8 -14 -8 -8 0 -16 -3 -18 -7 -4
-11 -210 -113 -225 -113 -7 0 -13 -4 -13 -10 0 -5 -8 -10 -17 -10 -10 0 -27
-7 -37 -15 -11 -8 -28 -15 -38 -15 -10 0 -18 -4 -18 -10 0 -5 -9 -10 -19 -10
-11 0 -22 -4 -26 -9 -3 -5 -20 -13 -37 -17 -18 -3 -39 -10 -48 -14 -28 -14
-64 -28 -115 -45 -27 -9 -58 -21 -67 -26 -10 -5 -27 -9 -38 -9 -11 0 -28 -4
-38 -9 -28 -15 -127 -41 -154 -41 -13 0 -28 -3 -32 -8 -9 -8 -107 -29 -179
-39 -26 -3 -50 -10 -53 -14 -3 -5 -30 -9 -60 -9 -30 0 -62 -4 -72 -9 -48 -26
-535 -47 -722 -32 -80 7 -182 15 -228 18 -45 3 -85 10 -88 14 -3 5 -26 9 -51
9 -26 0 -60 4 -77 9 -59 17 -171 41 -193 41 -13 0 -23 5 -23 10 0 6 -12 10
-27 10 -32 1 -159 33 -169 43 -4 4 -20 7 -36 7 -15 0 -28 5 -28 10 0 6 -7 10
-16 10 -22 0 -118 33 -122 43 -2 4 -12 7 -22 7 -10 0 -31 7 -46 15 -16 8 -39
15 -51 15 -13 0 -23 5 -23 10 0 6 -6 10 -13 10 -7 0 -37 11 -65 25 -29 14 -56
25 -62 25 -5 0 -10 5 -10 10 0 6 -9 10 -20 10 -11 0 -20 4 -20 9 0 5 -15 12
-34 15 -19 4 -36 10 -38 14 -2 4 -23 17 -47 30 -61 31 -105 56 -111 62 -8 8
-42 28 -80 47 -19 9 -41 23 -48 30 -7 7 -20 13 -28 13 -8 0 -14 5 -14 10 0 6
-7 10 -15 10 -8 0 -15 4 -15 9 0 5 -14 14 -31 21 -17 7 -36 18 -42 25 -7 6
-39 31 -72 55 -33 24 -66 50 -73 57 -7 7 -16 13 -20 13 -4 0 -21 14 -39 30
-18 17 -35 30 -38 30 -6 0 -61 49 -111 98 -13 12 -25 22 -28 22 -12 0 -297
297 -341 355 -16 22 -36 47 -45 56 -49 54 -70 80 -70 87 0 4 -11 19 -23 33
-13 13 -26 29 -28 34 -8 20 -104 160 -111 163 -5 2 -8 10 -8 18 0 8 -3 14 -8
14 -4 0 -13 14 -20 30 -8 17 -19 36 -25 43 -34 35 -174 322 -247 502 -18 44
-36 89 -40 100 -5 11 -16 43 -25 70 -10 28 -21 59 -25 70 -4 11 -13 40 -20 65
-7 25 -19 65 -26 89 -8 25 -14 55 -14 68 0 13 -4 23 -9 23 -5 0 -11 21 -14 48
-3 26 -13 83 -22 127 -55 262 -75 601 -55 915 8 116 17 213 22 216 4 3 8 29 8
58 0 29 4 66 9 82 5 16 16 74 26 129 9 55 21 109 25 120 5 11 16 54 26 95 10
41 21 79 26 84 4 6 8 23 8 38 0 15 5 28 10 28 6 0 10 8 10 17 0 22 37 127 61
175 5 10 9 22 9 28 0 5 11 33 24 62 13 29 35 78 47 108 32 74 166 337 179 350
7 7 29 43 37 60 4 8 9 17 12 20 12 10 61 90 61 99 0 5 3 11 8 13 11 5 62 75
62 86 0 6 3 12 8 14 4 2 20 21 37 43 38 51 56 74 75 94 9 9 29 34 45 56 44 59
329 355 341 355 5 0 61 51 120 108 7 6 17 12 22 12 6 0 12 3 14 8 2 4 28 27
58 52 30 24 56 48 58 52 2 5 8 8 14 8 6 0 25 11 42 23 68 52 136 97 146 97 5
0 10 4 10 8 0 5 35 28 78 52 42 24 79 47 82 50 3 3 30 18 60 34 63 34 64 34
145 73 33 15 62 31 63 36 2 4 11 7 21 7 9 0 26 7 37 15 10 8 27 15 37 15 9 0
17 5 17 10 0 6 9 10 20 10 11 0 43 11 72 24 56 25 166 66 233 86 22 7 47 16
56 20 9 5 37 11 63 15 25 4 49 11 52 16 3 5 21 9 40 9 19 0 34 4 34 8 0 4 33
13 73 20 39 8 95 18 122 23 28 6 73 12 100 15 28 3 59 9 70 14 30 13 350 35
520 35 167 -1 517 -24 525 -36 3 -4 32 -9 65 -12 33 -3 80 -10 105 -15 25 -5
72 -15 105 -22 33 -6 68 -16 77 -21 10 -5 31 -9 48 -9 16 0 30 -4 30 -9 0 -4
19 -11 42 -14 41 -6 57 2 58 28 0 12 -107 45 -145 45 -14 0 -25 4 -25 9 0 5
-17 11 -37 15 -152 23 -202 32 -209 39 -4 4 -33 7 -65 7 -32 0 -60 4 -63 8 -3
5 -45 12 -93 16 -48 3 -135 10 -193 16 -120 10 -337 10 -455 0z"/>
<path d="M6860 7585 c-9 -10 -9 -15 -1 -15 6 0 11 4 11 9 0 5 10 12 23 14 21
4 21 4 1 6 -12 0 -27 -6 -34 -14z"/>
<path d="M6820 7560 c0 -5 -7 -10 -17 -10 -9 0 -14 -3 -10 -6 8 -8 47 5 47 17
0 5 -4 9 -10 9 -5 0 -10 -4 -10 -10z"/>
<path d="M6765 7530 c-3 -5 -1 -10 4 -10 6 0 11 5 11 10 0 6 -2 10 -4 10 -3 0
-8 -4 -11 -10z"/>
<path d="M6720 7503 c-13 -15 -12 -16 4 -10 10 4 20 7 22 7 2 0 4 5 4 10 0 15
-13 12 -30 -7z"/>
<path d="M6670 7465 c-7 -8 -19 -15 -26 -15 -8 0 -14 -4 -14 -8 0 -4 -15 -16
-32 -27 -39 -22 -63 -45 -49 -45 5 0 16 7 25 15 8 8 19 15 25 15 6 0 11 4 11
9 0 5 8 12 18 15 22 7 79 56 65 56 -6 0 -16 -7 -23 -15z"/>
<path d="M6058 6635 c-19 -25 -23 -45 -10 -45 8 0 42 52 42 64 0 13 -16 4 -32
-19z"/>
<path d="M5970 6505 c0 -8 5 -15 10 -15 6 0 10 7 10 15 0 8 -4 15 -10 15 -5 0
-10 -7 -10 -15z"/>
<path d="M5166 6184 c-9 -24 -7 -27 9 -10 17 17 19 26 6 26 -5 0 -12 -7 -15
-16z"/>
<path d="M5140 6147 c0 -9 -4 -17 -10 -17 -5 0 -10 -4 -10 -10 0 -5 4 -10 9
-10 12 0 25 39 17 47 -3 4 -6 -1 -6 -10z"/>
<path d="M5100 6086 c-6 -9 -10 -21 -7 -28 4 -9 6 -7 6 4 1 9 7 18 14 21 6 2
9 7 6 11 -3 4 -12 0 -19 -8z"/>
<path d="M5070 6037 c0 -9 -4 -17 -10 -17 -5 0 -10 -7 -10 -15 0 -8 -4 -15
-10 -15 -5 0 -10 -4 -10 -10 0 -5 4 -10 8 -10 13 0 47 68 39 76 -4 4 -7 0 -7
-9z"/>
<path d="M5001 5928 c-1 -9 -6 -18 -12 -20 -7 -2 -10 -11 -7 -18 3 -11 8 -9
17 8 7 13 10 28 7 35 -2 7 -5 5 -5 -5z"/>
<path d="M4955 5849 c-4 -11 -4 -23 -1 -26 3 -4 6 1 6 10 0 10 5 17 10 17 6 0
10 5 10 10 0 18 -19 10 -25 -11z"/>
<path d="M4930 5807 c0 -9 -3 -17 -7 -17 -5 0 -17 -19 -28 -43 -11 -23 -22
-44 -25 -47 -15 -14 -43 -80 -37 -86 4 -4 7 0 7 9 0 10 3 17 8 17 4 0 16 19
27 43 11 23 22 44 25 47 15 14 43 80 37 86 -4 4 -7 0 -7 -9z"/>
<path d="M4810 5597 c0 -9 -3 -17 -8 -17 -11 0 -44 -80 -38 -94 2 -6 5 -3 5 7
1 9 6 17 11 17 6 0 10 9 10 20 0 11 4 20 9 20 10 0 25 50 16 58 -3 3 -5 -2 -5
-11z"/>
<path d="M4716 5433 c-3 -10 -9 -24 -12 -30 -3 -7 -1 -13 4 -13 5 0 12 8 16
18 3 9 9 23 12 30 3 6 1 12 -4 12 -5 0 -12 -8 -16 -17z"/>
<path d="M1580 5216 c0 -10 28 -13 41 -5 10 6 7 9 -13 9 -16 0 -28 -2 -28 -4z"/>
<path d="M1125 5190 c44 -11 75 -11 75 0 0 6 -23 9 -52 9 -45 -1 -49 -2 -23
-9z"/>
<path d="M883 5123 c9 -2 23 -2 30 0 6 3 -1 5 -18 5 -16 0 -22 -2 -12 -5z"/>
<path d="M834 5038 c-3 -4 11 -8 30 -8 20 0 36 2 36 4 0 8 -61 12 -66 4z"/>
<path d="M690 5026 c0 -8 51 -13 56 -5 3 5 -9 9 -25 9 -17 0 -31 -2 -31 -4z"/>
<path d="M603 5003 c9 -2 23 -2 30 0 6 3 -1 5 -18 5 -16 0 -22 -2 -12 -5z"/>
<path d="M930 4970 c-11 -7 3 -10 48 -10 35 0 62 4 62 10 0 13 -90 13 -110 0z"/>
<path d="M2346 4441 c-3 -5 1 -12 10 -15 22 -8 25 -4 9 11 -8 7 -16 9 -19 4z"/>
<path d="M2417 4373 c-4 -3 3 -14 15 -24 33 -30 39 -24 9 9 -10 12 -21 19 -24
15z"/>
</g>
</svg>
